<mxfile host="app.diagrams.net" modified="2024-05-04T22:31:46.471Z" agent="Mozilla/5.0 (Windows NT 10.0; Win64; x64; rv:126.0) Gecko/20100101 Firefox/126.0" etag="-aLpfjMsXXXNmfh6hKt9" version="24.3.1" type="github">
  <diagram id="C5RBs43oDa-KdzZeNtuy" name="Page-1">
    <mxGraphModel dx="819" dy="426" grid="1" gridSize="10" guides="1" tooltips="1" connect="1" arrows="1" fold="1" page="1" pageScale="1" pageWidth="827" pageHeight="1169" math="0" shadow="0">
      <root>
        <mxCell id="WIyWlLk6GJQsqaUBKTNV-0" />
        <mxCell id="WIyWlLk6GJQsqaUBKTNV-1" parent="WIyWlLk6GJQsqaUBKTNV-0" />
        <mxCell id="Y58Eivm-gZVJX4QIwe43-1" value="Esp Api Protocol V1" style="swimlane;startSize=20;horizontal=1;containerType=tree;newEdgeStyle={&quot;edgeStyle&quot;:&quot;elbowEdgeStyle&quot;,&quot;startArrow&quot;:&quot;none&quot;,&quot;endArrow&quot;:&quot;none&quot;};" vertex="1" parent="WIyWlLk6GJQsqaUBKTNV-1">
          <mxGeometry x="10" y="89" width="720" height="551" as="geometry" />
        </mxCell>
        <UserObject label="/about" treeRoot="1" id="Y58Eivm-gZVJX4QIwe43-4">
          <mxCell style="whiteSpace=wrap;html=1;align=center;treeFolding=1;treeMoving=1;newEdgeStyle={&quot;edgeStyle&quot;:&quot;elbowEdgeStyle&quot;,&quot;startArrow&quot;:&quot;none&quot;,&quot;endArrow&quot;:&quot;none&quot;};" vertex="1" parent="Y58Eivm-gZVJX4QIwe43-1">
            <mxGeometry x="120" y="50" width="120" height="60" as="geometry" />
          </mxCell>
        </UserObject>
        <mxCell id="Y58Eivm-gZVJX4QIwe43-17" value="" style="edgeStyle=elbowEdgeStyle;rounded=0;orthogonalLoop=1;jettySize=auto;html=1;elbow=vertical;startArrow=none;endArrow=none;" edge="1" source="Y58Eivm-gZVJX4QIwe43-4" target="Y58Eivm-gZVJX4QIwe43-18" parent="Y58Eivm-gZVJX4QIwe43-1">
          <mxGeometry relative="1" as="geometry" />
        </mxCell>
        <mxCell id="Y58Eivm-gZVJX4QIwe43-23" style="edgeStyle=elbowEdgeStyle;rounded=0;orthogonalLoop=1;jettySize=auto;html=1;startArrow=none;endArrow=none;exitX=0.5;exitY=1;exitDx=0;exitDy=0;entryX=0.5;entryY=0;entryDx=0;entryDy=0;" edge="1" parent="Y58Eivm-gZVJX4QIwe43-1" source="Y58Eivm-gZVJX4QIwe43-18" target="Y58Eivm-gZVJX4QIwe43-19">
          <mxGeometry relative="1" as="geometry" />
        </mxCell>
        <UserObject label="&lt;div&gt;type:&lt;/div&gt;" treeRoot="1" id="Y58Eivm-gZVJX4QIwe43-18">
          <mxCell style="whiteSpace=wrap;html=1;align=center;treeFolding=1;treeMoving=1;newEdgeStyle={&quot;edgeStyle&quot;:&quot;elbowEdgeStyle&quot;,&quot;startArrow&quot;:&quot;none&quot;,&quot;endArrow&quot;:&quot;none&quot;};" vertex="1" parent="Y58Eivm-gZVJX4QIwe43-1">
            <mxGeometry x="20" y="160" width="115" height="30" as="geometry" />
          </mxCell>
        </UserObject>
        <mxCell id="Y58Eivm-gZVJX4QIwe43-19" value="options" style="swimlane;fontStyle=0;childLayout=stackLayout;horizontal=1;startSize=26;fillColor=none;horizontalStack=0;resizeParent=1;resizeParentMax=0;resizeLast=0;collapsible=1;marginBottom=0;html=1;" vertex="1" parent="Y58Eivm-gZVJX4QIwe43-1">
          <mxGeometry x="7.5" y="225" width="140" height="104" as="geometry" />
        </mxCell>
        <mxCell id="Y58Eivm-gZVJX4QIwe43-20" value="ledControl" style="text;strokeColor=none;fillColor=none;align=left;verticalAlign=top;spacingLeft=4;spacingRight=4;overflow=hidden;rotatable=0;points=[[0,0.5],[1,0.5]];portConstraint=eastwest;whiteSpace=wrap;html=1;" vertex="1" parent="Y58Eivm-gZVJX4QIwe43-19">
          <mxGeometry y="26" width="140" height="26" as="geometry" />
        </mxCell>
        <mxCell id="Y58Eivm-gZVJX4QIwe43-31" value="wledControl" style="text;strokeColor=none;fillColor=none;align=left;verticalAlign=top;spacingLeft=4;spacingRight=4;overflow=hidden;rotatable=0;points=[[0,0.5],[1,0.5]];portConstraint=eastwest;whiteSpace=wrap;html=1;" vertex="1" parent="Y58Eivm-gZVJX4QIwe43-19">
          <mxGeometry y="52" width="140" height="26" as="geometry" />
        </mxCell>
        <mxCell id="Y58Eivm-gZVJX4QIwe43-21" value="serverControl" style="text;strokeColor=none;fillColor=none;align=left;verticalAlign=top;spacingLeft=4;spacingRight=4;overflow=hidden;rotatable=0;points=[[0,0.5],[1,0.5]];portConstraint=eastwest;whiteSpace=wrap;html=1;" vertex="1" parent="Y58Eivm-gZVJX4QIwe43-19">
          <mxGeometry y="78" width="140" height="26" as="geometry" />
        </mxCell>
        <mxCell id="Y58Eivm-gZVJX4QIwe43-32" value="" style="edgeStyle=elbowEdgeStyle;rounded=0;orthogonalLoop=1;jettySize=auto;html=1;elbow=vertical;startArrow=none;endArrow=none;" edge="1" target="Y58Eivm-gZVJX4QIwe43-33" source="Y58Eivm-gZVJX4QIwe43-4" parent="Y58Eivm-gZVJX4QIwe43-1">
          <mxGeometry relative="1" as="geometry">
            <mxPoint x="240" y="205" as="sourcePoint" />
          </mxGeometry>
        </mxCell>
        <mxCell id="Y58Eivm-gZVJX4QIwe43-40" style="edgeStyle=elbowEdgeStyle;rounded=0;orthogonalLoop=1;jettySize=auto;html=1;startArrow=none;endArrow=none;exitX=0.5;exitY=1;exitDx=0;exitDy=0;entryX=0.5;entryY=0;entryDx=0;entryDy=0;" edge="1" parent="Y58Eivm-gZVJX4QIwe43-1" source="Y58Eivm-gZVJX4QIwe43-33" target="Y58Eivm-gZVJX4QIwe43-36">
          <mxGeometry relative="1" as="geometry" />
        </mxCell>
        <UserObject label="support:" treeRoot="1" id="Y58Eivm-gZVJX4QIwe43-33">
          <mxCell style="whiteSpace=wrap;html=1;align=center;treeFolding=1;treeMoving=1;newEdgeStyle={&quot;edgeStyle&quot;:&quot;elbowEdgeStyle&quot;,&quot;startArrow&quot;:&quot;none&quot;,&quot;endArrow&quot;:&quot;none&quot;};" vertex="1" parent="Y58Eivm-gZVJX4QIwe43-1">
            <mxGeometry x="210" y="160" width="115" height="30" as="geometry" />
          </mxCell>
        </UserObject>
        <mxCell id="Y58Eivm-gZVJX4QIwe43-36" value="options" style="swimlane;fontStyle=0;childLayout=stackLayout;horizontal=1;startSize=26;fillColor=none;horizontalStack=0;resizeParent=1;resizeParentMax=0;resizeLast=0;collapsible=1;marginBottom=0;html=1;" vertex="1" parent="Y58Eivm-gZVJX4QIwe43-1">
          <mxGeometry x="197.5" y="200" width="140" height="140" as="geometry" />
        </mxCell>
        <mxCell id="Y58Eivm-gZVJX4QIwe43-84" value="onOfff" style="text;strokeColor=none;fillColor=none;align=left;verticalAlign=top;spacingLeft=4;spacingRight=4;overflow=hidden;rotatable=0;points=[[0,0.5],[1,0.5]];portConstraint=eastwest;whiteSpace=wrap;html=1;" vertex="1" parent="Y58Eivm-gZVJX4QIwe43-36">
          <mxGeometry y="26" width="140" height="26" as="geometry" />
        </mxCell>
        <mxCell id="Y58Eivm-gZVJX4QIwe43-38" value="&lt;div&gt;dimEnabled / disabled&lt;br&gt;&lt;/div&gt;" style="text;strokeColor=none;fillColor=none;align=left;verticalAlign=top;spacingLeft=4;spacingRight=4;overflow=hidden;rotatable=0;points=[[0,0.5],[1,0.5]];portConstraint=eastwest;whiteSpace=wrap;html=1;" vertex="1" parent="Y58Eivm-gZVJX4QIwe43-36">
          <mxGeometry y="52" width="140" height="26" as="geometry" />
        </mxCell>
        <mxCell id="Y58Eivm-gZVJX4QIwe43-39" value="rgbEnabled / disabled" style="text;strokeColor=none;fillColor=none;align=left;verticalAlign=top;spacingLeft=4;spacingRight=4;overflow=hidden;rotatable=0;points=[[0,0.5],[1,0.5]];portConstraint=eastwest;whiteSpace=wrap;html=1;" vertex="1" parent="Y58Eivm-gZVJX4QIwe43-36">
          <mxGeometry y="78" width="140" height="26" as="geometry" />
        </mxCell>
        <mxCell id="Y58Eivm-gZVJX4QIwe43-66" value="splitEnabled / disabled" style="text;strokeColor=none;fillColor=none;align=left;verticalAlign=top;spacingLeft=4;spacingRight=4;overflow=hidden;rotatable=0;points=[[0,0.5],[1,0.5]];portConstraint=eastwest;whiteSpace=wrap;html=1;" vertex="1" parent="Y58Eivm-gZVJX4QIwe43-36">
          <mxGeometry y="104" width="140" height="36" as="geometry" />
        </mxCell>
        <mxCell id="Y58Eivm-gZVJX4QIwe43-69" value="options" style="swimlane;fontStyle=0;childLayout=stackLayout;horizontal=1;startSize=26;fillColor=none;horizontalStack=0;resizeParent=1;resizeParentMax=0;resizeLast=0;collapsible=1;marginBottom=0;html=1;" vertex="1" parent="Y58Eivm-gZVJX4QIwe43-1">
          <mxGeometry x="197.5" y="351" width="140" height="52" as="geometry" />
        </mxCell>
        <mxCell id="Y58Eivm-gZVJX4QIwe43-70" value="/" style="text;strokeColor=none;fillColor=none;align=left;verticalAlign=top;spacingLeft=4;spacingRight=4;overflow=hidden;rotatable=0;points=[[0,0.5],[1,0.5]];portConstraint=eastwest;whiteSpace=wrap;html=1;" vertex="1" parent="Y58Eivm-gZVJX4QIwe43-69">
          <mxGeometry y="26" width="140" height="26" as="geometry" />
        </mxCell>
        <mxCell id="Y58Eivm-gZVJX4QIwe43-77" value="" style="endArrow=classic;html=1;rounded=0;" edge="1" parent="Y58Eivm-gZVJX4QIwe43-1" source="Y58Eivm-gZVJX4QIwe43-20" target="Y58Eivm-gZVJX4QIwe43-36">
          <mxGeometry width="50" height="50" relative="1" as="geometry">
            <mxPoint x="70" y="301" as="sourcePoint" />
            <mxPoint x="120" y="251" as="targetPoint" />
          </mxGeometry>
        </mxCell>
        <mxCell id="Y58Eivm-gZVJX4QIwe43-80" value="" style="endArrow=classic;html=1;rounded=0;entryX=0.003;entryY=0.357;entryDx=0;entryDy=0;entryPerimeter=0;" edge="1" parent="Y58Eivm-gZVJX4QIwe43-1" source="Y58Eivm-gZVJX4QIwe43-31" target="Y58Eivm-gZVJX4QIwe43-69">
          <mxGeometry width="50" height="50" relative="1" as="geometry">
            <mxPoint x="180" y="321" as="sourcePoint" />
            <mxPoint x="230" y="271" as="targetPoint" />
            <Array as="points">
              <mxPoint x="160" y="291" />
            </Array>
          </mxGeometry>
        </mxCell>
        <mxCell id="Y58Eivm-gZVJX4QIwe43-78" value="options" style="swimlane;fontStyle=0;childLayout=stackLayout;horizontal=1;startSize=26;fillColor=none;horizontalStack=0;resizeParent=1;resizeParentMax=0;resizeLast=0;collapsible=1;marginBottom=0;html=1;" vertex="1" parent="WIyWlLk6GJQsqaUBKTNV-1">
          <mxGeometry x="207.5" y="505" width="140" height="80" as="geometry" />
        </mxCell>
        <mxCell id="Y58Eivm-gZVJX4QIwe43-79" value="toggleState" style="text;strokeColor=none;fillColor=none;align=left;verticalAlign=top;spacingLeft=4;spacingRight=4;overflow=hidden;rotatable=0;points=[[0,0.5],[1,0.5]];portConstraint=eastwest;whiteSpace=wrap;html=1;" vertex="1" parent="Y58Eivm-gZVJX4QIwe43-78">
          <mxGeometry y="26" width="140" height="24" as="geometry" />
        </mxCell>
        <mxCell id="Y58Eivm-gZVJX4QIwe43-83" value="getStatus" style="text;strokeColor=none;fillColor=none;align=left;verticalAlign=top;spacingLeft=4;spacingRight=4;overflow=hidden;rotatable=0;points=[[0,0.5],[1,0.5]];portConstraint=eastwest;whiteSpace=wrap;html=1;" vertex="1" parent="Y58Eivm-gZVJX4QIwe43-78">
          <mxGeometry y="50" width="140" height="30" as="geometry" />
        </mxCell>
        <mxCell id="Y58Eivm-gZVJX4QIwe43-82" value="" style="endArrow=classic;html=1;rounded=0;entryX=-0.018;entryY=0.368;entryDx=0;entryDy=0;entryPerimeter=0;" edge="1" parent="WIyWlLk6GJQsqaUBKTNV-1" source="Y58Eivm-gZVJX4QIwe43-21" target="Y58Eivm-gZVJX4QIwe43-78">
          <mxGeometry width="50" height="50" relative="1" as="geometry">
            <mxPoint x="190" y="410" as="sourcePoint" />
            <mxPoint x="240" y="360" as="targetPoint" />
            <Array as="points">
              <mxPoint x="170" y="410" />
            </Array>
          </mxGeometry>
        </mxCell>
      </root>
    </mxGraphModel>
  </diagram>
</mxfile>
